<svg width="100" height="51" viewBox="0 0 100 51" fill="none" xmlns="http://www.w3.org/2000/svg">
<path d="M2.58542 29.5166H5.41834V43.4073H2.58542V29.5166Z" fill="white"/>
<path d="M7.06141 38.648C7.05954 37.6503 7.35369 36.6744 7.90664 35.8439C8.45959 35.0134 9.24648 34.3656 10.1677 33.9825C11.0889 33.5994 12.1031 33.4982 13.0819 33.6917C14.0607 33.8852 14.9601 34.3647 15.6662 35.0696C16.3724 35.7744 16.8536 36.6729 17.0489 37.6513C17.2443 38.6297 17.145 39.6441 16.7636 40.5661C16.3822 41.488 15.7359 42.2761 14.9064 42.8306C14.077 43.3852 13.1017 43.6811 12.104 43.6811C11.4404 43.6887 10.7821 43.5638 10.1675 43.3136C9.55296 43.0635 8.99447 42.6932 8.52483 42.2244C8.05519 41.7557 7.68384 41.1979 7.43255 40.5837C7.18126 39.9696 7.05508 39.3115 7.06141 38.648ZM14.2947 38.648C14.2836 38.2173 14.1457 37.7994 13.8983 37.4467C13.6509 37.0939 13.305 36.822 12.9038 36.6648C12.5026 36.5076 12.064 36.4723 11.6429 36.5631C11.2217 36.6539 10.8367 36.8669 10.5359 37.1754C10.2352 37.4839 10.0321 37.8743 9.95209 38.2977C9.87204 38.721 9.91861 39.1586 10.0859 39.5556C10.2533 39.9526 10.534 40.2915 10.8929 40.5298C11.2519 40.7681 11.6731 40.8953 12.104 40.8954C12.3987 40.9037 12.692 40.8508 12.9653 40.74C13.2386 40.6292 13.486 40.463 13.6919 40.2518C13.8977 40.0406 14.0576 39.7891 14.1613 39.5131C14.2651 39.237 14.3105 38.9425 14.2947 38.648Z" fill="white"/>
<path d="M28.5348 33.8885V42.9349C28.5348 46.1361 26.0324 47.4865 23.5017 47.4865C22.6118 47.5527 21.7208 47.3727 20.9263 46.9663C20.1318 46.5599 19.4645 45.9427 18.9974 45.1824L21.4337 43.7754C21.627 44.165 21.9329 44.4877 22.3117 44.7015C22.6905 44.9153 23.1248 45.0105 23.5584 44.9746C23.8436 45.0222 24.136 45.0036 24.413 44.9202C24.69 44.8369 24.9441 44.6911 25.1558 44.494C25.3674 44.2969 25.531 44.0538 25.6339 43.7835C25.7368 43.5132 25.7762 43.2229 25.7491 42.9349V42.0567C25.4161 42.4665 24.9911 42.792 24.5088 43.0069C24.0265 43.2218 23.5003 43.3201 22.9729 43.2938C21.6906 43.2938 20.4609 42.7844 19.5541 41.8777C18.6474 40.971 18.138 39.7412 18.138 38.4589C18.138 37.1766 18.6474 35.9469 19.5541 35.0402C20.4609 34.1335 21.6906 33.6241 22.9729 33.6241C23.5 33.6 24.0254 33.6993 24.5074 33.914C24.9894 34.1288 25.4146 34.4531 25.7491 34.8611V33.9168L28.5348 33.8885ZM25.7491 38.4589C25.768 37.9997 25.649 37.5453 25.4076 37.1541C25.1661 36.763 24.8132 36.453 24.3942 36.2641C23.9752 36.0751 23.5092 36.0158 23.0562 36.0938C22.6032 36.1717 22.1839 36.3834 21.8522 36.7015C21.5204 37.0197 21.2914 37.4298 21.1946 37.8791C21.0977 38.3284 21.1375 38.7965 21.3088 39.223C21.4801 39.6496 21.775 40.0151 22.1557 40.2727C22.5364 40.5304 22.9854 40.6682 23.445 40.6686C23.7451 40.6898 24.0462 40.648 24.329 40.5457C24.6119 40.4434 24.8702 40.2831 25.0873 40.0749C25.3043 39.8667 25.4754 39.6153 25.5894 39.337C25.7034 39.0587 25.7578 38.7596 25.7491 38.4589Z" fill="white"/>
<path d="M30.1685 38.648C30.1666 37.6503 30.4608 36.6744 31.0137 35.8439C31.5667 35.0134 32.3536 34.3656 33.2748 33.9825C34.196 33.5994 35.2102 33.4982 36.189 33.6917C37.1678 33.8852 38.0672 34.3647 38.7734 35.0696C39.4795 35.7744 39.9607 36.6729 40.1561 37.6513C40.3514 38.6297 40.2521 39.6441 39.8707 40.5661C39.4893 41.488 38.843 42.2761 38.0136 42.8306C37.1841 43.3852 36.2088 43.6811 35.2111 43.6811C34.5476 43.6887 33.8892 43.5638 33.2746 43.3136C32.66 43.0635 32.1015 42.6932 31.6319 42.2244C31.1623 41.7557 30.7909 41.1979 30.5396 40.5837C30.2883 39.9696 30.1621 39.3115 30.1685 38.648ZM37.4019 38.648C37.3907 38.2173 37.2528 37.7994 37.0054 37.4467C36.758 37.0939 36.4121 36.822 36.0109 36.6648C35.6098 36.5076 35.1712 36.4723 34.75 36.5631C34.3288 36.6539 33.9438 36.8669 33.643 37.1754C33.3423 37.4839 33.1392 37.8743 33.0591 38.2977C32.9791 38.721 33.0257 39.1586 33.193 39.5556C33.3604 39.9526 33.6411 40.2915 34 40.5298C34.359 40.7681 34.7802 40.8953 35.2111 40.8954C35.5043 40.901 35.7955 40.8462 36.0666 40.7342C36.3376 40.6222 36.5827 40.4556 36.7865 40.2447C36.9903 40.0339 37.1484 39.7832 37.2511 39.5085C37.3537 39.2338 37.3986 38.9408 37.383 38.648H37.4019Z" fill="white"/>
<path d="M41.5663 31.339C41.5663 30.9991 41.6671 30.6668 41.8559 30.3842C42.0448 30.1016 42.3132 29.8813 42.6272 29.7512C42.9413 29.6211 43.2868 29.5871 43.6202 29.6534C43.9536 29.7197 44.2598 29.8834 44.5002 30.1237C44.7406 30.3641 44.9042 30.6703 44.9705 31.0037C45.0369 31.3371 45.0028 31.6827 44.8728 31.9967C44.7427 32.3107 44.5224 32.5792 44.2398 32.768C43.9571 32.9568 43.6249 33.0576 43.2849 33.0576C42.8299 33.0552 42.3942 32.8733 42.0724 32.5515C41.7506 32.2298 41.5688 31.7941 41.5663 31.339ZM41.859 33.8886H44.6919V43.4072H41.859V33.8886Z" fill="white"/>
<path d="M57.0433 38.648C57.0776 39.2772 56.9872 39.907 56.7772 40.5011C56.5671 41.0952 56.2417 41.6419 55.8195 42.1097C55.3973 42.5775 54.8868 42.9572 54.3173 43.2269C53.7478 43.4966 53.1306 43.651 52.5012 43.6812C51.9728 43.7065 51.4452 43.6157 50.9558 43.415C50.4663 43.2143 50.0268 42.9087 49.6683 42.5197V47.2412H46.8354V33.8887H49.6683V34.7858C50.0268 34.3968 50.4663 34.0912 50.9558 33.8905C51.4452 33.6898 51.9728 33.599 52.5012 33.6243C53.1298 33.6545 53.7462 33.8086 54.315 34.0777C54.8839 34.3469 55.394 34.7257 55.816 35.1925C56.2381 35.6593 56.5637 36.2048 56.7743 36.7978C56.985 37.3908 57.0764 38.0196 57.0433 38.648ZM54.2104 38.648C54.1992 38.2048 54.0582 37.7746 53.8049 37.4107C53.5516 37.0469 53.1972 36.7652 52.7855 36.6008C52.3738 36.4363 51.9228 36.3962 51.4886 36.4855C51.0543 36.5747 50.6557 36.7894 50.3422 37.1029C50.0287 37.4164 49.8141 37.8149 49.7248 38.2492C49.6356 38.6835 49.6757 39.1344 49.8401 39.5461C50.0046 39.9578 50.2862 40.3123 50.6501 40.5655C51.014 40.8188 51.4442 40.9598 51.8874 40.971C52.1967 40.9907 52.5066 40.9439 52.7964 40.8339C53.0861 40.7238 53.3489 40.553 53.5672 40.333C53.7854 40.1129 53.9541 39.8487 54.0618 39.5581C54.1694 39.2675 54.2137 38.9572 54.1915 38.648H54.2104Z" fill="white"/>
<path d="M65.8632 40.5553C65.8632 42.7461 63.9746 43.6809 61.8971 43.6809C61.0672 43.7544 60.2343 43.5778 59.5056 43.1739C58.777 42.77 58.1858 42.1573 57.8083 41.4146L60.2824 40.0076C60.3828 40.3511 60.5978 40.6499 60.8915 40.8543C61.1853 41.0587 61.5401 41.1565 61.8971 41.1313C62.5865 41.1313 62.9264 40.9141 62.9264 40.5364C62.9264 39.4882 58.2049 40.0454 58.2049 36.7592C58.2049 34.6817 59.9613 33.6335 61.9821 33.6335C62.7278 33.6109 63.4661 33.788 64.1203 34.1467C64.7745 34.5053 65.3207 35.0324 65.7027 35.6732L63.2192 36.9764C63.1095 36.727 62.9297 36.5148 62.7017 36.3656C62.4737 36.2164 62.2074 36.1366 61.9349 36.1359C61.4439 36.1359 61.1417 36.3248 61.1417 36.6742C61.1795 37.7601 65.8632 37.033 65.8632 40.5553Z" fill="white"/>
<path d="M76.2884 33.8887V43.4073H73.4554V42.5197C73.1259 42.9141 72.7077 43.2249 72.235 43.4268C71.7624 43.6287 71.2485 43.7158 70.7357 43.6812C68.8471 43.6812 67.1758 42.3119 67.1758 39.734V33.8887H70.0087V39.3185C69.9838 39.5499 70.0108 39.7839 70.0876 40.0036C70.1644 40.2233 70.2891 40.4231 70.4528 40.5886C70.6164 40.7541 70.8149 40.881 71.0337 40.9602C71.2525 41.0395 71.4862 41.0689 71.7178 41.0466C72.7566 41.0466 73.4837 40.4422 73.4837 39.0919V33.8887H76.2884Z" fill="white"/>
<path d="M92.6625 37.5714V43.4072H89.8295V37.817C89.8295 36.8727 89.3668 36.2494 88.4603 36.2494C87.5538 36.2494 86.9683 36.9199 86.9683 38.0436V43.4072H84.1354V37.817C84.1354 36.8727 83.6821 36.2494 82.7661 36.2494C81.8502 36.2494 81.2836 36.9199 81.2836 38.0436V43.4072H78.4507V33.8887H81.2836V34.7669C81.5797 34.379 81.968 34.0713 82.4133 33.8718C82.8586 33.6722 83.3467 33.5871 83.8332 33.6243C84.3218 33.6005 84.8083 33.7038 85.2451 33.9238C85.682 34.1439 86.0544 34.4734 86.3262 34.8802C86.6422 34.4549 87.0609 34.1166 87.5431 33.897C88.0253 33.6774 88.5553 33.5835 89.0835 33.6243C91.2366 33.6243 92.6625 35.1918 92.6625 37.5714Z" fill="white"/>
<path d="M95.0801 33.8321C96.2483 33.8321 97.1953 32.885 97.1953 31.7168C97.1953 30.5486 96.2483 29.6016 95.0801 29.6016C93.9119 29.6016 92.9648 30.5486 92.9648 31.7168C92.9648 32.885 93.9119 33.8321 95.0801 33.8321Z" fill="white"/>
<path d="M34.6445 22.3115C40.1153 22.3115 44.5502 17.8765 44.5502 12.4057C44.5502 6.93496 40.1153 2.5 34.6445 2.5C29.1737 2.5 24.7387 6.93496 24.7387 12.4057C24.7387 17.8765 29.1737 22.3115 34.6445 22.3115Z" fill="white"/>
<path d="M56.7884 22.3115C62.2592 22.3115 66.6941 17.8765 66.6941 12.4057C66.6941 6.93496 62.2592 2.5 56.7884 2.5C51.3176 2.5 46.8826 6.93496 46.8826 12.4057C46.8826 17.8765 51.3176 22.3115 56.7884 22.3115Z" fill="white"/>
<path d="M22.4063 2.5H2.60431V22.302H22.4063V2.5Z" fill="white"/>
</svg>
